<?xml version="1.0" encoding="utf-8"?>
<!-- Generator: Adobe Illustrator 24.2.0, SVG Export Plug-In . SVG Version: 6.00 Build 0)  -->
<svg version="1.1" id="Layer_1" xmlns="http://www.w3.org/2000/svg" xmlns:xlink="http://www.w3.org/1999/xlink" x="0px" y="0px"
	 viewBox="0 0 60 60" style="enable-background:new 0 0 60 60;" xml:space="preserve">
<style type="text/css">
	.st0{fill:#FFFFFF;}
</style>
<path class="st0" d="M51.7,13.2c0.8,0,1.5,0.1,2.1,0.4c0.7,0.3,1.2,0.7,1.7,1.2c0.5,0.5,0.9,1.1,1.2,1.7s0.4,1.4,0.4,2.1
	s-0.1,1.5-0.4,2.1c-0.3,0.7-0.7,1.2-1.2,1.7c-0.5,0.5-1.1,0.9-1.7,1.2c-0.6,0.3-1.3,0.4-2.1,0.4v34.4H8.2V24.1
	c-0.8,0-1.5-0.1-2.1-0.4c-0.6-0.3-1.2-0.7-1.7-1.2c-0.5-0.5-0.9-1.1-1.2-1.8c-0.3-0.7-0.4-1.4-0.4-2.1c0-0.8,0.1-1.5,0.4-2.1
	s0.7-1.2,1.2-1.7c0.5-0.5,1.1-0.9,1.7-1.2s1.4-0.4,2.1-0.4c0.8,0,1.5,0.1,2.1,0.4c0.7,0.3,1.2,0.7,1.7,1.2c0.5,0.5,0.9,1.1,1.2,1.7
	s0.4,1.4,0.4,2.1c0,1-0.3,2-0.8,2.9s-1.3,1.6-2.3,2l10.2,13.6l7.4-13.3c-0.5-0.2-1-0.5-1.5-0.8c-0.4-0.3-0.8-0.7-1.2-1.2
	c-0.3-0.5-0.6-0.9-0.7-1.5s-0.2-1.1-0.3-1.7c0-0.8,0.1-1.5,0.4-2.1s0.7-1.2,1.2-1.7c0.5-0.5,1.1-0.9,1.7-1.2
	c0.7-0.3,1.4-0.4,2.1-0.4c0.8,0,1.5,0.1,2.1,0.4c0.7,0.3,1.2,0.7,1.7,1.2c0.5,0.5,0.9,1.1,1.2,1.7c0.3,0.7,0.4,1.4,0.4,2.1
	c0,1.2-0.3,2.2-1,3.1s-1.5,1.6-2.6,2l7.4,13.4l10-13.6c-0.9-0.5-1.7-1.1-2.2-2s-0.8-1.8-0.8-2.9c0-0.8,0.1-1.5,0.4-2.1
	s0.7-1.2,1.2-1.7c0.5-0.5,1.1-0.9,1.7-1.2C50.3,13.4,51,13.2,51.7,13.2z M28.2,18.7c0,0.5,0.2,0.9,0.5,1.3s0.8,0.5,1.3,0.5v0l0,0
	c0.5,0,0.9-0.2,1.2-0.5s0.5-0.8,0.5-1.3c0-0.5-0.2-0.9-0.5-1.3c-0.4-0.4-0.8-0.5-1.3-0.5c-0.5,0-0.9,0.2-1.3,0.5
	C28.4,17.8,28.2,18.2,28.2,18.7z M6.4,18.7c0,0.5,0.2,0.9,0.5,1.3s0.8,0.5,1.3,0.5v0l0,0c0.5,0,0.9-0.2,1.3-0.5s0.5-0.8,0.5-1.3
	c0-0.5-0.2-0.9-0.5-1.3c-0.4-0.4-0.8-0.5-1.3-0.5S7.3,17,7,17.4C6.6,17.8,6.4,18.2,6.4,18.7z M48.1,31.4l-9.2,12.5L30.1,28
	l-8.8,15.8l-9.4-12.5v23.6h36.2V31.4z M51.7,20.5c0.5,0,0.9-0.2,1.3-0.5c0.4-0.3,0.5-0.8,0.6-1.3c0-0.5-0.2-0.9-0.5-1.3
	c-0.4-0.4-0.8-0.5-1.3-0.5c-0.5,0-0.9,0.2-1.3,0.5c-0.4,0.4-0.5,0.8-0.5,1.3c0,0.5,0.2,0.9,0.5,1.2c0.3,0.3,0.7,0.5,1.2,0.6l0.1-0.1
	V20.5z"/>
</svg>
