<svg id="Layer_1" data-name="Layer 1" xmlns="http://www.w3.org/2000/svg" viewBox="0 0 480 260"><defs><style>.cls-1{fill:#fff;}.cls-2{fill:#1a1f71;}</style></defs><title>Artboard 1</title><rect class="cls-1" width="480" height="260" rx="43.1"/><path class="cls-2" d="M200.53,78.91,157.59,181.36h-28L108.44,99.59c-1.28-5-2.4-6.87-6.29-9-6.38-3.47-16.9-6.71-26.15-8.72l.63-3h45.1c5.74,0,10.91,3.82,12.22,10.44l11.17,59.28,27.57-69.72Zm109.77,69c.12-27-37.37-28.54-37.12-40.62.08-3.67,3.58-7.58,11.23-8.58a50,50,0,0,1,26.14,4.59l4.65-21.74A71.65,71.65,0,0,0,290.41,77C264.2,77,245.77,91,245.62,110.9c-.16,14.75,13.17,23,23.2,27.88,10.33,5,13.8,8.25,13.75,12.73-.07,6.88-8.25,9.92-15.85,10-13.34.21-21.06-3.6-27.22-6.47l-4.81,22.46c6.2,2.84,17.63,5.31,29.46,5.43,27.86,0,46.07-13.75,46.15-35.05m69.19,33.45H404L382.59,78.91H360a12.06,12.06,0,0,0-11.29,7.51l-39.77,94.94h27.84l5.52-15.3h34Zm-29.58-36.3,13.95-38.47,8,38.47ZM238.4,78.91,216.49,181.36H190L211.9,78.91Z"/></svg>