<svg width="40" height="40" xmlns="http://www.w3.org/2000/svg">

 <g>
  <title>background</title>
  <rect fill="none" id="canvas_background" height="40" width="40" y="-1" x="-1"/>
 </g>
 <g>
  <title>Layer 1</title>
  <svg y="0.00072" x="-0.08745" id="svg_1" viewBox="0 0 65 65" height="40" width="40">
   <path id="svg_21" d="m56.2,7.8c10.1,10.1 10.7,38.2 0,48.5c-10.4,10.1 -38.3,10.3 -48.5,0s-10.1,-38.1 0,-48.5c10.4,-10.6 38.4,-10.2 48.5,0" fill="#1450A0"/>
   <path id="svg_22" d="m39.8,32l9.2,-9.2l0,18.5l-9.2,-9.3zm-13.3,2.1l1.3,1.5c1.2,1.2 2.7,1.7 4.3,1.7s3.1,-0.7 4.3,-1.7l1.3,-1.5l8.8,8.9l-28.8,0l8.8,-8.9zm-2.2,-2.1l-9.2,9.2l0,-18.4l9.2,9.2zm9.9,1.3c-0.5,0.5 -1.3,0.9 -2.1,0.9s-1.6,-0.3 -2.1,-0.9l-12.5,-12.4l29.1,0l-12.4,12.4zm14.9,-15.3l-34,0c-1.6,0 -3.1,1.3 -3.1,3.1l0,22c0,1.6 1.3,3.1 3.1,3.1l34,0c1.6,0 3.1,-1.3 3.1,-3.1l0,-22.2c-0.1,-1.6 -1.5,-2.9 -3.1,-2.9z" fill="#FFF"/>
  </svg>
 </g>
</svg>