<svg xmlns="http://www.w3.org/2000/svg" xmlns:xlink="http://www.w3.org/1999/xlink" width="40" height="40" viewBox="0 0 50 50">
    <defs>
        <path id="a" d="M42.15 5.85c7.602 7.604 7.996 28.687 0 36.418-7.816 7.554-28.686 7.732-36.417 0-7.732-7.732-7.556-28.602 0-36.417 7.73-7.997 28.814-7.603 36.417 0"/>
    </defs>
    <g fill="none" fill-rule="evenodd">
        <path fill="#FFF" d="M-690-1442H870V764H-690z"/>
        <g transform="translate(0 0)">
            <mask id="b" fill="#fff">
                <use xlink:href="#a"/>
            </mask>
            <use fill="#33599D" xlink:href="#a"/>
            <path fill="#FFF" d="M30.726 48.154V30.348h5.978l.894-6.94h-6.872v-4.43c0-2.01.558-3.379 3.44-3.379l3.674-.002V9.391c-.635-.085-2.817-.274-5.354-.274-5.299 0-8.926 3.234-8.926 9.173v5.118h-5.992v6.94h5.992v17.806h7.166z" mask="url(#b)"/>
        </g>
    </g>
</svg>
