<svg id="Layer_1" data-name="Layer 1" xmlns="http://www.w3.org/2000/svg" viewBox="0 0 480 260"><rect width="480" height="260" rx="43.1" style="fill:#00aeef"/><g id="smyths-logo-web"><g id="Group_12" data-name="Group 12"><path id="Path_1" data-name="Path 1" d="M239.9,47h0l-30.37-2.43a7.58,7.58,0,0,0-4,6.84l.88,22.1.4,10.71a7.71,7.71,0,0,0,6,6.73l2.55.55L238,96.38a9,9,0,0,0,1.93.18V47Z" style="fill:#ed1c24"/><path id="Path_2" data-name="Path 2" d="M270.27,44.61l-15.63,1.25L239.93,47h0V96.54a10.16,10.16,0,0,0,2-.17l22.51-4.81L267,91a7.79,7.79,0,0,0,6-6.73l.39-10.71.88-22.1a7.9,7.9,0,0,0-4-6.86" style="fill:#ed1c24"/></g><path id="Path_4" data-name="Path 4" d="M239.9,46.5l14.71-1.17,15.62-1.25h0a11.64,11.64,0,0,0-4.18-1s-25.39-1.74-26.26-1.77h-.32l-24.79,1.57a15.5,15.5,0,0,0-5.15,1.17l30.37,2.44Z" style="fill:#ed1c24"/><path id="Path_5" data-name="Path 5" d="M239.9,46.49h0l-30.37-2.44a7.65,7.65,0,0,0-4,6.85l.88,22.1.4,10.71a7.72,7.72,0,0,0,6.05,6.74l2.55.54L238,95.83a9.57,9.57,0,0,0,1.93.19V46.49Z" style="fill:#f5ec3e"/><path id="Path_6" data-name="Path 6" d="M270.27,44.05l-15.63,1.24-14.71,1.17h0V96a9.45,9.45,0,0,0,2-.18L264.43,91l2.59-.54a7.76,7.76,0,0,0,6-6.74l.4-10.71.88-22.1a7.91,7.91,0,0,0-4-6.84" style="fill:#ffd42b"/><path id="Path_7" data-name="Path 7" d="M214.63,78.36l6.19,13.77-8-1.68A7.64,7.64,0,0,1,207,84.66Z" style="fill:#df9d2d"/><g id="Group_13" data-name="Group 13"><path id="Path_8" data-name="Path 8" d="M162.4,62.27l-23.66,8a7.28,7.28,0,0,0,.29,6.77l16.2,28.78a7.75,7.75,0,0,0,7.34,4.08l21.85-2.7a5.78,5.78,0,0,0,1.88-.43Z" style="fill:#ed1c24"/><path id="Path_9" data-name="Path 9" d="M214.19,77.38,200.61,47a7.78,7.78,0,0,0-5.83-3.8l-.58.32L162.41,62.27l23.85,44.54a13.34,13.34,0,0,0,1.93-1.13c6.37-4.55,25-19.52,25-19.52,4.33-3.38,1-8.77,1-8.77" style="fill:#ed1c24"/></g><path id="Path_10" data-name="Path 10" d="M265.75,77.38l-6.47,14.67,7.52-1.6a7.25,7.25,0,0,0,4.88-3.17,8.71,8.71,0,0,0,1.13-2.55Z" style="fill:#df9d2d"/><path id="Path_11" data-name="Path 11" d="M237.28,54.75l-1.13-.11c.8.26.36,1.28.36,1.28l-9.36,16.93-.43,12.7,1.25.26.44-12.64,9.34-16.92s.54-1.35-.47-1.5" style="fill:#131718"/><path id="Path_12" data-name="Path 12" d="M220,54.14l2.08,5.94c.5,1.38,1,3.13,1.46,4.7h0c.22-.5.44-1,.63-1.53-.31-1-.63-2-.91-2.91l-2.07-5.94s-.3-1.53-1.65-1.64l-.93-.11a2.27,2.27,0,0,1,1.38,1.5" style="fill:#131718"/><path id="Path_13" data-name="Path 13" d="M236.51,55.89s.5-1-.36-1.27c0,0-.11,0-.15,0l-6.58-.69a1.57,1.57,0,0,0-1.57,1l-2.4,5.54c-.36.83-.76,1.82-1.2,2.81-.22.49-.43,1-.63,1.52h0c-.5-1.56-1-3.31-1.46-4.7l-2.08-5.93a2.13,2.13,0,0,0-1.34-1.46s-.11,0-.15,0l-6.63-.8c-1.16-.14-.58,1.16-.58,1.16l8.09,18.75-.37,9.85a3.2,3.2,0,0,0,2.37,2.81l5.24,1,.44-12.71Z" style="fill:#ed1c24"/><path id="Path_14" data-name="Path 14" d="M253.37,83.2l.66-22-1.31.14L252,83.43a2.34,2.34,0,0,0,2.52,2.12l.29,0,1.2-.22a2.27,2.27,0,0,1-2.63-1.85h0a1.92,1.92,0,0,1,0-.22" style="fill:#131718"/><path id="Path_15" data-name="Path 15" d="M246,60.7l.37-5.21a1.2,1.2,0,0,1,1-1.2l-1.05.11a1.21,1.21,0,0,0-1.2,1.13l-.35,5.28s-.07,1.25,1,1.25l1.31-.14c-1.13,0-1.05-1.2-1.05-1.2" style="fill:#131718"/><path id="Path_16" data-name="Path 16" d="M247.62,54.29a1.9,1.9,0,0,0-.25,0,1.24,1.24,0,0,0-1,1.21l-.35,5.2s-.07,1.2,1,1.25h0l5.68-.63,1.31-.14-.65,22A2.35,2.35,0,0,0,256,85.37h.13l2-.29,3.17-.49L262,60.4l5.57-.65a2.92,2.92,0,0,0,2.62-2.55l.41-5.36Z" style="fill:#ed1c24"/><g id="Group_14" data-name="Group 14"><path id="Path_17" data-name="Path 17" d="M341.24,70.24h0l-23.63-8h0l-23.82,44.46a7.42,7.42,0,0,0,1.86.44l21.85,2.73a7.75,7.75,0,0,0,7.32-4.08L341,77a7,7,0,0,0,.22-6.78" style="fill:#ed1c24"/><path id="Path_18" data-name="Path 18" d="M285.82,43.5l-.59-.32h0A8,8,0,0,0,279.44,47L265.83,77.38s-3.18,5.61,1,8.74c0,0,18.64,15,25,19.52a12.19,12.19,0,0,0,2,1.09l23.82-44.46Z" style="fill:#ed1c24"/></g><path id="Path_19" data-name="Path 19" d="M341.57,69.69h0l-23.66-8h0l-23.85,44.51a7.88,7.88,0,0,0,1.86.44l21.91,2.72a7.71,7.71,0,0,0,7.31-4.07l16.17-28.77a7.12,7.12,0,0,0,.26-6.82" style="fill:#ffd42b"/><path id="Path_20" data-name="Path 20" d="M286.08,43l-.59-.32h.06a8,8,0,0,0-5.87,3.83L266,76.86s-3.17,5.61,1.06,8.76c0,0,18.64,15,25,19.52a10.43,10.43,0,0,0,2,1.09l23.86-44.51Z" style="fill:#f5ec3e"/><path id="Path_21" data-name="Path 21" d="M286.08,43l31.83,18.76h0l23.67,8v0a14.59,14.59,0,0,0-4-3.61L309.71,50.54,288.8,43.07a8.53,8.53,0,0,0-3.25-.44h0Z" style="fill:#ed1c24"/><path id="Path_22" data-name="Path 22" d="M306.79,63.71,305.6,63a1.28,1.28,0,0,1,.44,1.64L292.1,91.46a2.22,2.22,0,0,1-3,.85h0l-.07,0,1,.73a2.27,2.27,0,0,0,3.16-.5,1.28,1.28,0,0,0,.15-.25l13.88-26.8a1.27,1.27,0,0,0-.36-1.75" style="fill:#131718"/><path id="Path_23" data-name="Path 23" d="M278.28,84.4l1.13.77,6.7-12.06-1.25-.8Z" style="fill:#131718"/><path id="Path_24" data-name="Path 24" d="M292.59,57.17l-4.95,9.53,1.2.77L293.75,58a1.43,1.43,0,0,0-.49-1.82L292,55.45a1.34,1.34,0,0,1,.55,1.72" style="fill:#131718"/><path id="Path_25" data-name="Path 25" d="M292.08,91.5,306,64.7a1.27,1.27,0,0,0-.43-1.64h0L300,59.82a1,1,0,0,0-1.32.21.64.64,0,0,0-.1.18L293.25,70.3l-4.41-2.84-1.2-.76,4.95-9.54a1.31,1.31,0,0,0-.54-1.71l-5.54-3.24a.94.94,0,0,0-1.32.14,1,1,0,0,0-.13.22L272.27,77.41a2.72,2.72,0,0,0,1.18,3.66h0l4.81,3.32h0l6.59-12.1,1.2.82L290.38,76l-6.61,12.6,5,3.64.19.11a2.22,2.22,0,0,0,3-.7l.05-.08" style="fill:#ed1c24"/><path id="Path_26" data-name="Path 26" d="M336.47,77.53a17.94,17.94,0,0,0-9.72-6.74,12.15,12.15,0,0,0-15.14,6.34,7.67,7.67,0,0,0,1.88,10.16,7.76,7.76,0,0,1-.81-9.14,12,12,0,0,1,15.15-6.37,15,15,0,0,1,8.42,6s.22-.21.22-.21" style="fill:#131718"/><path id="Path_27" data-name="Path 27" d="M310.07,93.59A25.52,25.52,0,0,0,314.73,96c2.84.87,4.48.18,5.21-1.5.54-1.2.07-2-1.26-3a1.79,1.79,0,0,1,.15,2c-.73,1.65-2.37,2.37-5.21,1.5A25.85,25.85,0,0,1,309,92.56a3.1,3.1,0,0,0-4.34.65l0,0-2.19,2.66a14.53,14.53,0,0,0,1,1.09l2.3-2.73a3.15,3.15,0,0,1,4.35-.68" style="fill:#131718"/><path id="Path_28" data-name="Path 28" d="M327.87,71.84a11.91,11.91,0,0,0-15.15,6.37,7.76,7.76,0,0,0,.8,9.14,12.93,12.93,0,0,0,2.08,1.83l2.66,2c.16.12.32.24.47.37,1.31,1,1.78,1.82,1.26,3-.77,1.64-2.37,2.37-5.21,1.49a24,24,0,0,1-4.66-2.44,3.14,3.14,0,0,0-4.37.69l-2.31,2.73h0a15.69,15.69,0,0,0,8.34,5.33,12.72,12.72,0,0,0,16.71-6.68h0c.06-.15.13-.31.18-.46,2.74-6-.93-8.92-3.6-10.74l-2.49-1.71c-1.86-1.26-1.78-2.37-1.2-3.31A3.67,3.67,0,0,1,325.05,78a9.16,9.16,0,0,1,4.49,2.22,3,3,0,0,0,3.93-.07c.58-.47,2.77-2.33,2.77-2.33a14.39,14.39,0,0,0-8.37-6" style="fill:#ed1c24"/><path id="Path_29" data-name="Path 29" d="M162.07,61.72l-23.69,8a7.3,7.3,0,0,0,.29,6.77l16.21,28.78a7.74,7.74,0,0,0,7.32,4.08l21.91-2.7a5.84,5.84,0,0,0,1.88-.43Z" style="fill:#f5ec3e"/><path id="Path_30" data-name="Path 30" d="M213.93,76.83l-13.61-30.4a7.8,7.8,0,0,0-5.83-3.8l-.58.32-31.8,18.73L186,106.21a12.76,12.76,0,0,0,1.93-1.12c6.37-4.55,25-19.52,25-19.52,4.33-3.35,1-8.74,1-8.74" style="fill:#ffd42b"/><path id="Path_31" data-name="Path 31" d="M194.49,42.6h0a9.84,9.84,0,0,0-3.28.43L170.3,50.54,142.42,66.08a13.22,13.22,0,0,0-4,3.61v0l23.67-8h0L193.9,43Z" style="fill:#ed1c24"/><path id="Path_32" data-name="Path 32" d="M174.64,88.05a11.18,11.18,0,0,0-10.92-6.3,10.52,10.52,0,0,1,9.43,6.19c3.35,7.06.25,12-7.5,13.87a21.26,21.26,0,0,1-11,.18h0l.07.31a24,24,0,0,0,12.45-.36c6.56-2,10.82-6.81,7.47-13.91" style="fill:#131718"/><path id="Path_33" data-name="Path 33" d="M161.42,76.25a12,12,0,0,0-5.39.58,2.47,2.47,0,0,0-1.71,3c.32,1,1.2,1.88,3.68,1.88h.14a2.63,2.63,0,0,1-2.33-1.78A2.42,2.42,0,0,1,157.52,77a10.88,10.88,0,0,1,5.39-.59c3,.29,3.06-2,3.06-2,.07-.65.26-2.8.26-2.8-.5-.18-1-.32-1.5-.5,0,0-.18,2.49-.25,3.17,0,0-.11,2.29-3.06,2" style="fill:#131718"/><path id="Path_34" data-name="Path 34" d="M165.61,101.81c7.76-1.88,10.9-6.81,7.5-13.87a10.57,10.57,0,0,0-9.46-6.21c-.8-.07-1.56-.07-2.29-.07H158c-2.49,0-3.38-.91-3.67-1.88a2.49,2.49,0,0,1,1.71-3,10.83,10.83,0,0,1,5.35-.58c3,.29,3.06-2,3.06-2,.07-.66.25-3.14.25-3.17a20.73,20.73,0,0,0-11.58-.26c-6.62,1.64-9.46,6.59-6.7,12.42A11.49,11.49,0,0,0,157.74,90l3.79.18c2.33,0,3.53.36,4.15,1.67.77,1.6.07,3-2.91,3.76a30.49,30.49,0,0,1-5.72.5c-3.53-.22-2.88,2.69-2.88,2.69l.44,3.22h0a21.33,21.33,0,0,0,11-.18" style="fill:#ed1c24"/><path id="Path_35" data-name="Path 35" d="M172.49,66.85a3,3,0,0,1,1-3.78l-.92.54a3.05,3.05,0,0,0-1.12,4l3.07,7.27L186,96.64l1.1-.76L175.62,74.1Z" style="fill:#131718"/><path id="Path_36" data-name="Path 36" d="M202.68,80,195,63.9c.25,1.13.58,3.1.69,3.64l.15,1.13,5.79,12.13c1.63,3.71,3.89,1.75,3.89,1.75l.73-.63c-.63.37-2.22,1-3.53-1.88" style="fill:#131718"/><path id="Path_37" data-name="Path 37" d="M190.23,69.47a57,57,0,0,0-1.17-6.07l-1.25-6.34s-.31-2,.73-2.59l-1.1.7c-1.13.69-.73,2.65-.73,2.65l1.2,6.3c.44,1.78.66,3.06.88,4.33.43.37.84.73,1.28,1.13Z" style="fill:#131718"/><path id="Path_38" data-name="Path 38" d="M192.89,79.53l-8-6c-.66-.58-2.15-2.07-2.63-2.62l1.13,2,1,1.82,7.43,5.58c.69.54,1.86,1.31,2.88.76l1.09-.63c-.88.44-2.19-.31-2.88-.9" style="fill:#131718"/><path id="Path_39" data-name="Path 39" d="M210.11,78.65l-9.83-21c-1.31-2.37-2.86-4.45-3.31-5.17a2.62,2.62,0,0,0-3.53-1.08,1.61,1.61,0,0,0-.28.17l-4.59,2.91h0c-1,.63-.73,2.58-.73,2.58l1.26,6.34a55.2,55.2,0,0,1,1.16,6.08l-.11.07c-.39-.36-.83-.76-1.27-1.13-1.41-1.19-2.82-2.33-3.8-3.35l-4.34-4.11a2.61,2.61,0,0,0-3-.44l-4,2.44a1.86,1.86,0,0,1-.19.11,3,3,0,0,0-1,3.79l3.06,7.28,11.45,21.78h0L191.14,93a3.43,3.43,0,0,0,.69-4.48l-7.47-13.79-1-1.82-1.13-2c.5.54,2,2,2.63,2.62l8,6c.69.54,2,1.35,2.88.87h0l.5-.29c.9-.66.84-1.75.54-3.13l-1.05-8.35-.15-1.09c-.14-.54-.43-2.49-.69-3.64l7.72,16.13c1.31,2.91,2.91,2.26,3.53,1.86a2.1,2.1,0,0,0,.3-.22Z" style="fill:#ed1c24"/></g><path d="M84,176.57c0-14.37,11.46-25.82,26.33-25.82,7.68,0,12.31,2.49,15.08,4.41a5.86,5.86,0,0,1,2.78,4.62A5.14,5.14,0,0,1,123,165a5.52,5.52,0,0,1-3.2-1,16.88,16.88,0,0,0-9.68-3.2c-8.75,0-15.22,6.69-15.22,15.72s6.47,15.73,15.22,15.73c6.91,0,12-3.92,13.24-10.18h-10.1a3.91,3.91,0,1,1,0-7.82H130a4.34,4.34,0,0,1,4.55,4.41C134.5,190.66,124.25,202,110,202,95.08,202,84,191,84,176.57Z" style="fill:#fff"/><path d="M140.75,154.38a6.24,6.24,0,0,1,12.46,0,5.85,5.85,0,0,1-6.19,6C143.32,160.35,140.75,157.86,140.75,154.38Zm11.46,15v27a5.23,5.23,0,1,1-10.46,0v-27a5.23,5.23,0,1,1,10.46,0Z" style="fill:#fff"/><path d="M175.33,164.55v2.06h7.19a4.2,4.2,0,1,1,0,8.4h-7.19v21.42a4.91,4.91,0,0,1-5.12,5.19,5,5,0,0,1-5.19-5.19V175H162.1a4.2,4.2,0,1,1,0-8.4H165v-2.84c0-8.26,4.83-13,12.8-13a18.75,18.75,0,0,1,5.77.71c2.27.57,3.77,1.92,3.77,4a3.78,3.78,0,0,1-4,4c-.64,0-1.56-.29-2.63-.29C177.18,159.14,175.33,161.06,175.33,164.55ZM213,196.5a5,5,0,0,1-3.63,4.62,21,21,0,0,1-6.4.86c-7.33,0-12-4.13-12-11.67V160.49a5.19,5.19,0,0,1,10.38,0v4h7.47a4.31,4.31,0,0,1,0,8.61h-7.47v14.58c0,3.28,1.5,4.84,4.34,4.84,1.36,0,2.28-.28,2.85-.28C211.19,192.23,213,193.79,213,196.5Z" style="fill:#fff"/><path d="M264.05,150.75a26,26,0,0,1,15.16,4.48,5.84,5.84,0,0,1,3,4.91,5,5,0,0,1-5.05,5.12,6.43,6.43,0,0,1-3.63-1.28,15.19,15.19,0,0,0-9.67-3.2c-8.76,0-15.23,6.76-15.23,15.58s6.47,15.58,15.23,15.58A14.55,14.55,0,0,0,274,188.31a6,6,0,0,1,3.77-1.49,4.78,4.78,0,0,1,5,5,5.81,5.81,0,0,1-1.92,4.13c-1.92,1.85-7.4,6-17.15,6-14.87,0-26-11-26-25.41S249.18,150.75,264.05,150.75Z" style="fill:#fff"/><path d="M321.39,180.42v16.5a4.48,4.48,0,0,1-4.69,4.7,4.34,4.34,0,0,1-4.42-3.27A16.51,16.51,0,0,1,301.33,202c-8.83,0-14.16-4.7-14.16-11.18s5.62-11.52,14.44-11.52a16.26,16.26,0,0,1,9.39,2.63v-1.57c0-5.12-3.48-7.89-8.32-7.89a12.49,12.49,0,0,0-6.48,1.71,5.79,5.79,0,0,1-2.41.56,3.79,3.79,0,0,1-4-3.91,4.64,4.64,0,0,1,2.42-3.84c1.49-1,5.19-3.2,12.52-3.2C315,163.77,321.39,170,321.39,180.42Zm-10,10c0-2.78-2.63-5-7-5-4.13,0-6.76,2.27-6.76,5s2.63,5.05,6.76,5.05C308.73,195.43,311.36,193.15,311.36,190.38Z" style="fill:#fff"/><path d="M329.43,168.68a4.33,4.33,0,0,1,4.55-4.56,4.39,4.39,0,0,1,4.63,4.56l.07,3c2.2-5.06,5.76-7.9,10.32-7.9a5.3,5.3,0,1,1,0,10.6c-5.55,0-9.25,3.41-9.25,10.67v11.39a5.16,5.16,0,1,1-10.32,0Z" style="fill:#fff"/><path d="M395,156.22v40.63a4.77,4.77,0,1,1-9.54,0v-.92a15,15,0,0,1-12.17,6c-9.67,0-17.71-8.19-17.71-18.93s8.25-19.28,18.07-19.28a14,14,0,0,1,11,4.91V156.22a5.2,5.2,0,0,1,10.39,0Zm-10,26.69a9.53,9.53,0,1,0-9.53,9.6A9.37,9.37,0,0,0,384.92,182.91Z" style="fill:#fff"/></svg>