<svg id="Layer_1" data-name="Layer 1" xmlns="http://www.w3.org/2000/svg" viewBox="0 0 480 260"><defs><style>.cls-1{fill:#fff;}.cls-2{fill:none;}.cls-3{fill:#ff5f00;}.cls-4{fill:#eb001b;}.cls-5{fill:#f79e1b;}</style></defs><title>Artboard 1 copy</title><rect class="cls-1" width="480" height="260" rx="43.1"/><g id="Layer_1-2" data-name="Layer 1-2"><rect class="cls-2" x="103.45" y="36" width="273.09" height="224"/><g id="_Group_" data-name=" Group "><rect class="cls-3" x="201.87" y="62.64" width="76.26" height="137.04"/><path id="_Path_" data-name=" Path " class="cls-4" d="M206.71,131.18A87,87,0,0,1,240,62.64a87.15,87.15,0,1,0,0,137.05A87,87,0,0,1,206.71,131.18Z"/><path class="cls-5" d="M381,131.18a87.15,87.15,0,0,1-141,68.51,87.16,87.16,0,0,0,0-137,87.14,87.14,0,0,1,141,68.51Z"/><path class="cls-5" d="M372.69,185.16v-2.81h1.13v-.58h-2.88v.58h1.24v2.81Zm5.59,0v-3.39h-.87l-1,2.42-1-2.42h-.77v3.39h.63v-2.54l.94,2.2h.66l.94-2.2v2.57Z"/></g></g></svg>