<svg xmlns="http://www.w3.org/2000/svg" xmlns:xlink="http://www.w3.org/1999/xlink" width="40" height="40" viewBox="0 0 50 50">
    <defs>
        <path id="a" d="M42.15 5.85c7.602 7.604 7.996 28.687 0 36.418-7.816 7.554-28.686 7.732-36.417 0-7.732-7.732-7.556-28.602 0-36.417 7.73-7.997 28.814-7.603 36.417 0"/>
    </defs>
    <g fill="none" fill-rule="evenodd">
        <path fill="#FFF" d="M-850-1442H710V764H-850z"/>
        <g transform="translate(0 0)">
            <mask id="b" fill="#fff">
                <use xlink:href="#a"/>
            </mask>
            <use fill="#BD081C" xlink:href="#a"/>
            <path fill="#FFF" d="M15.253 47.055c-.21-1.9-.4-4.82.083-6.892.436-1.873 2.814-11.929 2.814-11.929s-.718-1.438-.718-3.563c0-3.337 1.934-5.828 4.343-5.828 2.047 0 3.036 1.537 3.036 3.38 0 2.06-1.31 5.138-1.987 7.99-.566 2.39 1.197 4.337 3.553 4.337 4.266 0 7.544-4.497 7.544-10.99 0-5.745-4.128-9.763-10.024-9.763-6.828 0-10.836 5.122-10.836 10.415 0 2.063.794 4.275 1.786 5.477.196.237.225.446.166.688-.182.758-.587 2.388-.666 2.722-.105.439-.348.532-.803.32-2.997-1.395-4.871-5.777-4.871-9.297 0-7.57 5.5-14.522 15.857-14.522 8.325 0 14.794 5.932 14.794 13.86 0 8.271-5.215 14.928-12.453 14.928-2.432 0-4.718-1.264-5.5-2.756 0 0-1.204 4.582-1.495 5.705-.542 2.084-2.005 4.697-2.983 6.29-.624-.129-1.371-.422-1.64-.572z" mask="url(#b)"/>
        </g>
    </g>
</svg>
