<svg xmlns="http://www.w3.org/2000/svg" xmlns:xlink="http://www.w3.org/1999/xlink" width="40" height="40" viewBox="0 0 50 50">
    <defs>
        <path id="a" d="M42.15 5.85c7.602 7.604 7.996 28.687 0 36.418-7.816 7.554-28.686 7.732-36.417 0-7.732-7.732-7.556-28.602 0-36.417 7.73-7.997 28.814-7.603 36.417 0"/>
        <path id="b" d="M36.073 18.36c.495-.396 1.006-.85 1.534-1.361.528-.512.923-1.048 1.187-1.608-.429.23-.899.42-1.41.569a9.84 9.84 0 0 1-1.657.321 8.344 8.344 0 0 0 1.41-1.336 5.432 5.432 0 0 0 .965-1.78c-.561.296-1.13.56-1.707.79-.578.232-1.213.413-1.905.545-.825-.99-1.856-1.55-3.093-1.682a6.418 6.418 0 0 0-3.513.593c-1.105.528-1.987 1.336-2.647 2.425-.66 1.088-.808 2.375-.445 3.86-2.771-.166-5.055-.809-6.853-1.93a23.848 23.848 0 0 1-4.824-3.959c-.792 1.287-.949 2.73-.47 4.33.478 1.6 1.195 2.68 2.152 3.24a5.01 5.01 0 0 1-1.311-.247 7.398 7.398 0 0 1-1.114-.495c.066 1.65.503 2.903 1.312 3.76.808.858 1.839 1.502 3.092 1.93-.363.066-.75.108-1.163.124a6.56 6.56 0 0 1-1.261-.074c.395 1.122 1.014 2.029 1.855 2.721.841.693 1.954 1.105 3.34 1.237-.924.825-2.169 1.468-3.736 1.93-1.567.462-3.06.577-4.478.346a19.017 19.017 0 0 0 3.983 1.955c1.435.511 3.126.734 5.072.668 2.31-.1 4.42-.577 6.333-1.435 1.914-.858 3.555-2.02 4.924-3.488 1.368-1.468 2.44-3.217 3.216-5.245.775-2.029 1.179-4.264 1.212-6.705z"/>
    </defs>
    <g fill="none" fill-rule="evenodd">
        <path fill="#FFF" d="M-770-1442H790V764H-770z"/>
        <g transform="translate(0 0)">
            <use fill="#55ACEE" xlink:href="#a"/>
            <use fill="#FFF" xlink:href="#b"/>
        </g>
    </g>
</svg>
